# xmcd
#
# Track frame offsets: 
#        150
#        12095
#        24681
#        36460
#        50837
#        62295
#        73303
#        84829
#        97278
#        109078
#        125328
#
# Disc length: 1798 seconds
#
# Revision: 1
# Processed by: cddbd v1.5.1PL2 Copyright (c) Steve Scherf et al.
# Submitted via: ExactAudioCopy v0.95b1
#
DISCID=9607040b
DTITLE=Brenda Lee - The Collection [CD1]
DYEAR=2004
DGENRE=Easy Listening
TTITLE0=I'm Sorry
TTITLE1=All Alone Am I
TTITLE2=Sweet Nothin's
TTITLE3=I Want to Be Wanted
TTITLE4=Break it to Me Gently
TTITLE5=Fool Number One
TTITLE6=Dum Dum
TTITLE7=Emotions
TTITLE8=As Usual
TTITLE9=You Can Depend on Me
TTITLE10=Dynamite
EXTD=
EXTT0=
EXTT1=
EXTT2=
EXTT3=
EXTT4=
EXTT5=
EXTT6=
EXTT7=
EXTT8=
EXTT9=
EXTT10=
PLAYORDER=
